<mxfile host="app.diagrams.net" modified="2024-02-07T03:30:45.698Z" agent="Mozilla/5.0 (Windows NT 10.0; Win64; x64) AppleWebKit/537.36 (KHTML, like Gecko) Chrome/121.0.0.0 Safari/537.36" version="23.1.1" etag="c_0R3TVY_k2l8VroD5O4" type="github">
  <diagram name="Halaman-1" id="h6p1sGXBK5EnCwFfzibA">
    <mxGraphModel>
      <root>
        <mxCell id="0" />
        <mxCell id="1" parent="0" />
      </root>
    </mxGraphModel>
  </diagram>
</mxfile>
